<svg width="32" height="32" viewBox="0 0 32 32" fill="none" xmlns="http://www.w3.org/2000/svg">
<rect width="32" height="32" rx="8" fill="#1f2937"/>
<path d="M25.904 20.571a2.667 2.667 0 00-1.363-.729l-3.183-.637a8 8 0 00-5.146.69l-.425.21a8 8 0 01-5.146.69l-2.574-.515a2.667 2.667 0 00-2.408.729M10.667 5.333h10.666l-1.333 1.334v6.896a2.667 2.667 0 00.781 1.885l6.667 6.667c1.68 1.68.49 4.552-1.886 4.552H6.438c-2.376 0-3.566-2.871-1.885-4.552l6.667-6.667a2.667 2.667 0 00.781-1.885V6.667l-1.333-1.334z" stroke="white" stroke-width="2.67" stroke-linecap="round" stroke-linejoin="round"/>
</svg>
