<svg fill="none" height="630" viewBox="0 0 1200 630" width="1200" xmlns="http://www.w3.org/2000/svg"><path d="m0 0h1200v630h-1200z" fill="#f8fafc"/><rect fill="#fff" height="530" rx="24" stroke="#e2e8f0" stroke-width="2" width="1100" x="50" y="50"/><circle cx="200" cy="200" fill="#1f2937" r="60"/><path d="m170 170h60l-10 10v51.72a20 20 0 0 0 5.86 14.14l50 50c12.6 12.6 3.67 34.14-14.15 34.14h-120c-17.82 0-26.74-21.54-14.14-34.14l50-50a20 20 0 0 0 5.86-14.14v-51.72l-10-10z" fill="#fff"/><g font-family="system-ui, -apple-system, sans-serif"><text fill="#1f2937" font-size="48" font-weight="700" x="300" y="180">Printer.tools</text><text fill="#6b7280" font-size="24" x="300" y="230">3D Printing Tools &amp; Resources</text><text fill="#9ca3af" font-size="18" x="300" y="280">Discover essential 3D printing tools, guides, and optimization resources</text></g><rect fill="#3b82f6" height="40" rx="20" width="150" x="300" y="320"/><text fill="#fff" font-family="system-ui, -apple-system, sans-serif" font-size="16" font-weight="600" text-anchor="middle" x="375" y="345">Visit Now</text></svg>