<?xml version="1.0" standalone="no"?>
<!DOCTYPE svg PUBLIC "-//W3C//DTD SVG 20010904//EN"
 "http://www.w3.org/TR/2001/REC-SVG-20010904/DTD/svg10.dtd">
<svg version="1.0" xmlns="http://www.w3.org/2000/svg"
 width="420.084319pt" height="402.981103pt" viewBox="0 0 420.084319 402.981103"
 preserveAspectRatio="xMidYMid meet">
<metadata>
Created by potrace 1.12, written by Peter Selinger 2001-2015
</metadata>
<g transform="translate(-25.011705,419.880976) scale(0.100000,-0.100000)"
fill="#000000" stroke="none">
<path d="M555 4191 c-102 -26 -214 -112 -260 -201 -46 -89 -45 -41 -45 -1777
0 -1169 3 -1657 11 -1695 35 -167 160 -294 329 -334 84 -20 3416 -20 3511 0
170 36 289 150 335 321 20 73 20 3270 0 3360 -36 165 -154 289 -308 325 -51
11 -3526 12 -3573 1z m675 -714 c6 -346 6 -346 73 -387 29 -18 51 -20 222 -20
222 0 245 7 283 80 21 43 22 53 22 336 0 161 3 299 6 308 12 32 58 12 158 -68
88 -71 178 -220 216 -358 28 -101 28 -256 -1 -358 -35 -127 -71 -183 -204
-315 -132 -132 -160 -177 -176 -279 -6 -39 -9 -236 -7 -488 3 -408 4 -425 25
-477 12 -30 37 -77 55 -105 64 -99 88 -173 88 -276 0 -150 -72 -288 -195 -371
-85 -58 -164 -82 -268 -81 -254 3 -447 198 -447 453 0 109 18 164 98 294 60
99 62 117 62 569 0 226 -4 437 -10 470 -19 119 -62 184 -214 325 -71 65 -122
143 -154 236 -34 97 -42 273 -17 377 35 145 120 290 223 379 66 56 133 92 147
78 6 -6 12 -127 15 -322z m2165 288 c64 -31 119 -85 153 -149 l27 -51 3 -625
3 -626 35 -19 c60 -32 84 -113 48 -164 -28 -39 -73 -51 -194 -51 l-110 0 0
-342 c0 -377 -3 -357 64 -421 28 -28 28 -30 22 -105 -4 -42 -9 -106 -12 -142
-3 -36 -9 -92 -15 -125 -5 -33 -9 -88 -9 -122 0 -51 -4 -67 -24 -90 -23 -27
-29 -28 -124 -31 -92 -4 -101 -2 -125 20 -24 21 -28 33 -37 128 -5 58 -14 148
-20 200 -5 52 -12 128 -16 167 l-7 73 40 37 c22 21 45 51 51 66 8 20 12 126
12 357 l0 330 -115 0 c-159 0 -205 26 -205 116 0 50 27 88 75 105 l35 13 0
618 c0 686 -3 659 68 746 91 114 248 150 377 87z"/>
<path d="M1492 1260 c-112 -26 -183 -158 -142 -264 18 -50 79 -105 135 -122
49 -16 55 -16 109 1 83 26 146 109 146 192 0 34 -29 106 -53 131 -46 50 -132
77 -195 62z"/>
<path d="M3210 3567 c-14 -7 -33 -28 -42 -47 -17 -32 -18 -83 -18 -627 l0
-593 110 0 110 0 0 606 0 606 -34 34 c-37 37 -80 44 -126 21z"/>
</g>
</svg>
