<?xml version="1.0" encoding="UTF-8" standalone="no"?><!DOCTYPE svg PUBLIC "-//W3C//DTD SVG 1.1//EN" "http://www.w3.org/Graphics/SVG/1.1/DTD/svg11.dtd"><svg width="100%" height="100%" viewBox="0 0 800 800" version="1.1" xmlns="http://www.w3.org/2000/svg" xmlns:xlink="http://www.w3.org/1999/xlink" xml:space="preserve" xmlns:serif="http://www.serif.com/" style="fill-rule:evenodd;clip-rule:evenodd;stroke-linejoin:round;stroke-miterlimit:2;"><rect id="ArtBoard2" x="0" y="0" width="800" height="800" style="fill:none;"/><g><path d="M171.155,162.972l0.131,-125.22l610.714,0l-0.166,125.296l-218.339,0l0,599.2l-158.169,0l0,-494.324c0,-57.449 -46.432,-104.093 -103.879,-104.356c-62.596,-0.286 -130.292,-0.596 -130.292,-0.596Z" style="fill-opacity:0.7;fill-rule:nonzero;"/><path d="M18,762.248l0,-724.496l285.837,0c54.95,0 101.764,10.435 140.442,31.307c38.677,20.872 68.216,49.762 88.616,86.671c20.4,36.909 30.6,79.419 30.6,127.53c0,48.111 -10.377,90.562 -31.13,127.353c-20.754,36.791 -50.765,65.445 -90.032,85.963c-39.267,20.518 -86.73,30.777 -142.388,30.777l-182.185,0l0,-122.754l157.422,0c29.48,0 53.831,-5.13 73.051,-15.389c19.221,-10.259 33.607,-24.527 43.159,-42.804c9.551,-18.278 14.327,-39.327 14.327,-63.146c0,-24.056 -4.776,-45.104 -14.327,-63.146c-9.552,-18.042 -23.997,-32.074 -43.336,-42.097c-19.338,-10.023 -43.866,-15.035 -73.581,-15.035l-103.298,0l0,599.266l-153.177,0Z" style="fill-opacity:0.7;fill-rule:nonzero;"/></g><path d="M303.837,37.752c54.951,0 101.764,10.435 140.442,31.307c38.677,20.872 68.216,49.762 88.616,86.671c20.4,36.908 30.6,79.418 30.6,127.53c0,48.111 -10.377,90.562 -31.13,127.353c-20.754,36.791 -50.765,65.445 -90.032,85.963c-11.618,6.071 -23.954,11.243 -37.007,15.518l0,-217.228c0.262,-3.793 0.393,-7.662 0.393,-11.606c0,-3.984 -0.131,-7.885 -0.393,-11.704l0,-3.632c0,-57.449 -46.432,-104.093 -103.879,-104.356l-10.677,-0.049c-5.246,-0.358 -10.678,-0.537 -16.295,-0.537l-101.209,0l-2.111,-0.01l0.131,-125.22l132.551,0Z" style="fill-rule:nonzero;"/></svg>